<svg id="visual" viewBox="0 0 960 540" width="960" height="540" xmlns="http://www.w3.org/2000/svg" xmlns:xlink="http://www.w3.org/1999/xlink" version="1.1"><rect x="0" y="0" width="960" height="540" fill="#002833"></rect><path d="M0 414L22.8 412.8C45.7 411.7 91.3 409.3 137 395.5C182.7 381.7 228.3 356.3 274 358.2C319.7 360 365.3 389 411.2 394.2C457 399.3 503 380.7 548.8 371.7C594.7 362.7 640.3 363.3 686 369.8C731.7 376.3 777.3 388.7 823 389.8C868.7 391 914.3 381 937.2 376L960 371L960 541L937.2 541C914.3 541 868.7 541 823 541C777.3 541 731.7 541 686 541C640.3 541 594.7 541 548.8 541C503 541 457 541 411.2 541C365.3 541 319.7 541 274 541C228.3 541 182.7 541 137 541C91.3 541 45.7 541 22.8 541L0 541Z" fill="#00fff0" stroke-linecap="round" stroke-linejoin="miter"></path></svg>